<svg width="37" height="15" viewBox="0 0 37 15" fill="none" xmlns="http://www.w3.org/2000/svg">
<path d="M6.76077 1.92996C6.32721 2.43814 5.63352 2.83784 4.93982 2.78074C4.85311 2.09555 5.19418 1.36467 5.59305 0.9193C6.02661 0.399696 6.78389 0.0285497 7.40243 0C7.4718 0.708032 7.18855 1.41035 6.76077 1.92996ZM7.39087 2.91207C6.38502 2.85497 5.52368 3.47735 5.04966 3.47735C4.56407 3.47735 3.8357 2.94062 3.03795 2.95775C2.00319 2.97488 1.04358 3.55158 0.517532 4.47088C-0.569254 6.31519 0.234274 9.03883 1.28637 10.5405C1.80086 11.2828 2.41363 12.0994 3.22293 12.0708C3.99178 12.0423 4.29238 11.5797 5.2173 11.5797C6.14801 11.5797 6.4197 12.0708 7.22901 12.0594C8.06722 12.0423 8.59327 11.3171 9.10776 10.5748C9.69162 9.72973 9.93441 8.91321 9.94597 8.86753C9.92863 8.8504 8.32736 8.24515 8.31002 6.41797C8.29267 4.8877 9.57601 4.16254 9.63381 4.11686C8.91122 3.05482 7.78397 2.94062 7.39087 2.91207ZM13.1948 0.845071V11.9737H14.9463V8.17092H17.3685C19.5825 8.17092 21.1318 6.6692 21.1318 4.49943C21.1318 2.32965 19.6056 0.845071 17.4263 0.845071H13.1948ZM14.9463 2.3011H16.9638C18.4842 2.3011 19.3513 3.1005 19.3513 4.50514C19.3513 5.90978 18.4842 6.72059 16.9581 6.72059H14.9463V2.3011ZM24.3228 12.0594C25.4211 12.0594 26.4385 11.5112 26.901 10.6376H26.9357V11.9737H28.5543V6.4351C28.5543 4.83061 27.2536 3.7914 25.2535 3.7914C23.3978 3.7914 22.022 4.84202 21.97 6.28093H23.5481C23.6811 5.59574 24.3228 5.14465 25.2014 5.14465C26.2709 5.14465 26.8721 5.63571 26.8721 6.54359V7.16026L24.687 7.29159C22.6579 7.4115 21.5596 8.23373 21.5596 9.66121C21.5653 11.1001 22.6984 12.0594 24.3228 12.0594ZM24.7968 10.7404C23.8661 10.7404 23.2707 10.295 23.2707 9.62124C23.2707 8.91892 23.843 8.51351 24.9355 8.4507L26.8779 8.3308V8.95889C26.8779 9.9981 25.9818 10.7404 24.7968 10.7404ZM30.7221 15C32.4274 15 33.2309 14.3548 33.9304 12.4077L37 3.89989H35.2195L33.1616 10.472H33.1269L31.0689 3.89989H29.2422L32.202 12.0023L32.0401 12.4933C31.7742 13.327 31.3406 13.6525 30.566 13.6525C30.4273 13.6525 30.1613 13.6353 30.0515 13.6239V14.96C30.1556 14.9829 30.5891 15 30.7221 15Z" fill="#34373F"/>
</svg>
