<svg width="26" height="26" viewBox="0 0 26 26" fill="none" xmlns="http://www.w3.org/2000/svg">
<path d="M20.67 11.57C16.51 9.1 9.555 8.84 5.59 10.075C4.94 10.27 4.29 9.88 4.095 9.295C3.9 8.645 4.29 7.995 4.875 7.8C9.49 6.435 17.095 6.695 21.905 9.555C22.49 9.88 22.685 10.66 22.36 11.245C22.035 11.7 21.255 11.895 20.67 11.57ZM20.54 15.21C20.215 15.665 19.63 15.86 19.175 15.535C15.665 13.39 10.335 12.74 6.24 14.04C5.72 14.17 5.135 13.91 5.005 13.39C4.875 12.87 5.135 12.285 5.655 12.155C10.4 10.725 16.25 11.44 20.28 13.91C20.67 14.105 20.865 14.755 20.54 15.21ZM18.98 18.785C18.72 19.175 18.265 19.305 17.875 19.045C14.82 17.16 10.985 16.77 6.435 17.81C5.98 17.94 5.59 17.615 5.46 17.225C5.33 16.77 5.655 16.38 6.045 16.25C10.985 15.145 15.275 15.6 18.655 17.68C19.11 17.875 19.175 18.395 18.98 18.785ZM13 0C11.2928 0 9.60235 0.336255 8.02512 0.989566C6.44788 1.64288 5.01477 2.60045 3.80761 3.80761C1.36964 6.24558 0 9.55219 0 13C0 16.4478 1.36964 19.7544 3.80761 22.1924C5.01477 23.3995 6.44788 24.3571 8.02512 25.0104C9.60235 25.6637 11.2928 26 13 26C16.4478 26 19.7544 24.6304 22.1924 22.1924C24.6304 19.7544 26 16.4478 26 13C26 11.2928 25.6637 9.60235 25.0104 8.02512C24.3571 6.44788 23.3995 5.01477 22.1924 3.80761C20.9852 2.60045 19.5521 1.64288 17.9749 0.989566C16.3977 0.336255 14.7072 0 13 0Z" fill="#34373F"/>
</svg>
