<svg width="40" height="13" viewBox="0 0 40 13" fill="none" xmlns="http://www.w3.org/2000/svg">
<path d="M15.1867 0.231455L9.95 12.8038H6.53333L3.95667 2.76906C3.8 2.15185 3.665 1.92543 3.18833 1.66546C2.41167 1.24113 1.12833 0.843634 0 0.595408L0.0766667 0.231455H5.57667C5.93608 0.231092 6.28378 0.360037 6.55701 0.595013C6.83025 0.829989 7.011 1.15552 7.06667 1.51284L8.42833 8.78854L11.7917 0.231455H15.1867ZM28.575 8.69965C28.5883 5.38047 24.015 5.19765 24.0467 3.715C24.0567 3.26384 24.4833 2.78416 25.4167 2.66172C26.5105 2.55718 27.6121 2.75188 28.605 3.22526L29.1717 0.558509C28.205 0.192543 27.1811 0.00339894 26.1483 0C22.9533 0 20.705 1.71075 20.685 4.15779C20.665 5.96749 22.29 6.97549 23.515 7.57928C24.775 8.19481 25.1983 8.59063 25.1917 9.14076C25.1833 9.98607 24.1883 10.3567 23.2583 10.3718C21.6333 10.397 20.6917 9.93072 19.9383 9.57851L19.3533 12.3325C20.1083 12.6813 21.5017 12.9866 22.9467 13C26.3417 13 28.5633 11.3127 28.575 8.69965ZM37.01 12.8038H40L37.3917 0.231455H34.6317C34.3366 0.228015 34.0474 0.314211 33.8018 0.478782C33.5562 0.643352 33.3656 0.878645 33.255 1.15392L28.4067 12.8038H31.8L32.475 10.9253H36.6217L37.01 12.8038ZM33.405 8.34912L35.105 3.62779L36.085 8.34912H33.405ZM19.805 0.231455L17.1333 12.8038H13.9L16.575 0.231455H19.805Z" fill="#34373F"/>
</svg>
