<svg width="1728" height="100" viewBox="0 0 1728 100" fill="none" xmlns="http://www.w3.org/2000/svg">
<rect x="0.5" y="0.5" width="1727" height="99" fill="#3B3D40"/>
<rect x="0.5" y="0.5" width="1727" height="99" stroke="#3B3D40"/>
<path fill-rule="evenodd" clip-rule="evenodd" d="M83.4646 29.0058C86.2644 28.9592 89.2451 29.1841 91.223 29.9931C91.56 30.7638 91.3545 32.338 91.3545 33.35V38.7474C91.3545 39.6415 91.4394 40.7303 91.2887 41.5119H91.0915C90.7354 41.1362 90.3244 41.0594 89.8423 40.7879C89.0916 40.3655 88.2122 39.9898 87.2781 39.7347H86.6863C84.0043 39.1286 81.221 40.0309 79.5855 40.9853C77.3254 42.3045 75.5775 44.6576 74.7858 47.4359C74.7639 47.765 74.6816 48.0283 74.6597 48.3574C74.3967 49.4791 74.4735 51.5003 74.7858 52.5699C74.9721 53.2117 75.2132 53.9824 75.5091 54.6104C76.7364 57.2186 79.0157 59.0314 81.8209 60.0736C84.1934 60.9567 87.2753 60.4521 89.1848 59.6129C92.0558 58.3485 94.0858 56.1929 95.1022 53.0965C95.6665 51.3769 95.4309 48.7194 95.4309 46.3827C95.4309 43.5222 95.4967 40.5904 95.4967 37.8259C95.5186 35.8951 95.5405 33.9644 95.5624 32.0336C95.7542 32.0309 95.6528 31.9705 95.7596 32.0336C99.3073 34.118 102.091 37.3679 103.978 41.117C104.51 42.1756 104.858 43.3906 105.227 44.5397C105.271 44.8249 105.315 45.1102 105.359 45.3954C105.847 46.8051 105.885 48.4506 105.885 50.3978V52.3725C105.57 53.5079 105.474 54.871 105.096 55.9927C103.502 60.7126 100.943 64.2835 97.2719 66.9191C95.6254 68.1011 93.8529 69.0445 91.8147 69.881C91.1298 70.1608 90.5354 70.1635 89.7765 70.4076C88.93 70.6791 85.1248 71 84.0783 71L81.8209 70.8072L79.6512 70.3418C77.8322 69.7521 75.9803 69.1021 74.4571 68.1697C69.3944 65.0706 66.1152 60.7675 64.529 54.1497C64.2085 52.814 63.9129 50.8111 64.0237 48.9588V47.4447C64.0237 45.9306 64.6879 44.5315 65.1865 43.2233C66.2631 40.3984 67.7425 38.24 69.3944 36.0487C69.8684 35.4207 70.5806 34.927 71.1696 34.4032C73.0846 32.7028 75.2187 31.3727 77.8103 30.3222C78.9554 29.8588 80.2347 29.6311 81.4922 29.3349C82.0647 29.2005 83.1222 29.3788 83.4646 29.0058ZM122.125 33.8766C123.215 33.8656 123.889 34.2085 124.295 34.8639C124.651 35.4399 124.492 36.7453 124.492 37.6284V44.2764C124.492 46.1551 124.766 48.5768 124.295 50.1345C123.44 52.9566 121.555 54.6817 118.837 55.6636C117.413 56.1792 115.046 56.1709 113.643 55.5977C111.145 54.5748 109.337 52.6385 108.581 49.8713C108.438 49.3474 108.37 48.3464 108.449 47.8966C108.592 47.093 108.444 46.4622 108.646 45.7903C109.375 43.3851 110.909 41.7944 112.986 40.7221C113.709 40.3491 115.558 39.6058 116.865 39.9322C118.043 40.2257 119.065 41.7779 118.18 43.0916C117.479 44.1338 116.55 43.6648 115.287 44.079C113.876 44.5425 112.816 45.7135 112.46 47.2384C112.304 47.9048 112.509 48.8071 112.657 49.213C113.462 51.4153 116.213 53.0252 118.772 51.3193C119.459 50.8613 120.073 50.0084 120.35 49.1472C120.637 48.2504 120.481 46.8298 120.481 45.7245V38.8132C120.481 37.8698 120.267 36.0131 120.547 35.2589C120.709 34.8255 121.155 34.299 121.533 34.0741C121.73 34.0083 121.928 33.9424 122.125 33.8766ZM193.659 33.8766C194.64 33.8629 195.3 34.1125 195.698 34.6665C196.193 35.3549 196.092 36.6384 196.092 37.8259V44.803C196.092 46.4897 196.289 48.4643 195.895 49.8713C195.057 52.8661 193.128 54.8408 190.175 55.7294C189.194 56.0256 187.608 56.2313 186.427 55.9269C185.907 55.7925 185.339 55.6745 184.849 55.4661C182.367 54.4075 180.775 52.3176 180.049 49.4763C179.86 48.7331 179.893 47.5648 180.049 46.9093C180.189 46.3251 180.126 45.9028 180.312 45.3954C181.159 43.0999 182.759 41.4598 184.981 40.5246C185.63 40.2503 187.35 39.6223 188.465 39.9322C189.599 40.2476 190.588 41.7999 189.715 43.0916C188.969 44.1914 187.86 43.6319 186.624 44.1448C185.26 44.7125 184.37 45.8013 183.994 47.37C183.783 48.2504 184.14 49.1966 184.389 49.6738C185.35 51.5278 187.967 52.9539 190.306 51.3193C190.964 50.8613 191.608 50.0386 191.884 49.213C192.172 48.3464 192.016 46.934 192.016 45.8562V38.9449C192.016 37.793 191.769 36.0378 192.147 35.1272C192.498 34.277 193.007 34.3319 193.659 33.8766ZM152.106 39.8664C155.555 39.7786 157.752 40.7056 159.667 42.1043C160.467 42.6885 161.432 43.7361 160.522 45.0005C160.163 45.4969 159.122 46.092 158.155 45.7245C157.533 45.4886 157.068 44.8798 156.511 44.5397C155.736 44.0653 154.69 43.9172 153.684 43.684C152.35 43.3741 149.545 43.865 149.279 44.6055C148.928 45.1924 149.589 45.5051 149.937 45.6587C150.572 45.9412 151.441 46.0536 152.369 46.0536H153.684C154.342 46.1414 154.999 46.2291 155.657 46.3169C157.394 46.8051 159.056 47.4606 159.996 48.7523C160.421 49.3392 161.141 50.2744 160.851 51.5168C159.804 56.0119 152.273 57.1583 147.833 54.9395C146.893 54.4706 144.51 53.3735 144.742 51.9117C144.904 50.8997 145.789 49.7094 147.307 50.1345C148.052 50.343 148.537 51.0122 149.148 51.3852C150.227 52.0434 152.325 52.4273 153.684 52.175C154.72 51.983 155.996 52.1887 156.314 51.3193C156.396 51.1987 156.385 50.9436 156.38 50.7269C155.851 50.3348 155.588 50.1263 154.802 49.9371C153.662 49.8932 152.523 49.8493 151.383 49.8054C149.687 49.4297 148.233 49.2021 146.978 48.4232C145.641 47.5949 144.055 45.6751 145.005 43.4207C145.496 42.2579 146.811 41.287 147.964 40.7879C148.811 40.4204 149.75 40.2284 150.726 39.998C151.126 39.902 151.783 40.0638 152.106 39.8664ZM210.425 39.8664C213.924 39.7786 216.124 40.7358 218.052 42.1701C218.921 42.8174 219.671 43.8294 218.775 45.0663C218.436 45.5353 217.376 46.0646 216.474 45.7245C215.839 45.4859 215.389 44.8825 214.831 44.5397C214.036 44.0543 212.97 43.9226 211.938 43.684C210.899 43.4427 208.447 43.7937 207.927 44.1448C207.73 44.2792 207.568 44.4903 207.532 44.803C207.513 44.8496 207.527 44.9922 207.532 45.1979L207.927 45.5929C208.245 45.8068 208.85 45.8891 209.242 45.9878C210.403 46.0317 211.565 46.0756 212.727 46.1194C215.195 46.6871 217.233 47.1589 218.447 48.9498C218.885 49.5998 219.427 50.6502 219.104 51.8459C218.992 52.2573 218.803 52.7592 218.578 53.0965C216.535 56.1682 210.212 56.7386 206.283 55.0053C205.182 54.5199 202.516 53.2748 203.127 51.451C203.377 50.7077 204.324 49.7616 205.626 50.1345C206.333 50.3375 206.765 50.9656 207.335 51.3193C208.242 51.8843 209.623 52.0132 210.688 52.2408C211.696 52.4548 214.332 52.0297 214.568 51.3852C215.28 50.524 213.625 50.0715 213.055 49.9371C211.938 49.8932 210.82 49.8493 209.702 49.8054C207.113 49.2405 204.815 48.7304 203.587 46.8435C203.357 46.4869 203.324 46.1222 203.193 45.6587C202.319 42.5623 205.637 40.936 207.73 40.2613C208.321 40.1516 208.913 40.0419 209.505 39.9322C209.812 39.8664 210.209 39.998 210.425 39.8664ZM133.171 39.9322C137.611 39.8719 140.165 41.7368 141.455 44.803C141.926 45.922 142.57 48.1709 141.652 49.3447C141.088 50.066 139.861 50.0029 138.562 50.0029C136.198 50.0029 132.913 50.5048 132.184 48.8181C132.001 48.393 132.042 47.765 132.184 47.37C132.85 45.5106 135.083 45.9494 137.51 45.9878V45.8562C136.65 44.9977 136.444 44.3916 135.012 44.0131C131.883 43.1876 129.064 46.5857 130.278 49.4763C130.804 50.7297 131.921 51.6375 133.368 51.9776H134.814C136.48 51.9776 140.263 51.632 141.258 52.3067C142.603 53.2172 142.266 55.3537 140.863 55.9269C139.981 56.2861 137.162 56.0585 135.932 56.0585C134.617 56.0585 133.212 56.1682 132.119 55.861C129.185 55.0383 127.207 53.102 126.333 50.2004C125.968 48.9936 125.848 47.0272 126.267 45.7245C127.048 43.2973 128.749 41.4077 131.001 40.4588C131.549 40.3052 132.097 40.1516 132.645 39.998C132.847 39.9487 133.042 40.0145 133.171 39.9322ZM169.398 39.9322C170.623 39.913 171.823 39.8911 172.751 40.1955C175.858 41.2157 178.288 43.8513 178.472 47.5675V52.3067C178.472 53.0225 178.603 54.0125 178.406 54.6104C178.255 55.0629 177.866 55.5676 177.485 55.7952C176.146 56.5933 174.727 55.4908 174.461 54.4788V52.0434C174.461 48.3985 174.798 46.1057 172.554 44.6055C171.979 44.2216 170.902 43.6621 169.727 43.9473C168.283 44.2984 167.168 45.1924 166.637 46.4485C165.829 48.3601 166.886 50.439 168.017 51.2535C169.171 52.0845 171.294 51.7143 172.094 52.8332C172.99 54.0838 172.017 55.6828 170.91 55.9927C169.702 56.33 167.664 55.5977 167.031 55.2686C164.914 54.1689 163.418 52.6796 162.626 50.2662C162.475 49.8027 162.547 49.405 162.429 48.8839C162.207 47.9021 162.36 46.4705 162.626 45.6587C163.382 43.3467 165.031 41.4571 167.163 40.5246C167.645 40.371 168.127 40.2174 168.609 40.0638C168.88 39.9898 169.193 40.0638 169.398 39.9322ZM199.051 39.9322C200.193 39.9185 200.845 40.1324 201.286 40.7879C201.744 41.468 201.615 42.8283 201.615 43.9473V51.0561C201.615 53.3269 201.889 55.5017 200.103 55.9927C199.689 56.1051 199.089 55.9515 198.854 55.861C197.361 55.2878 197.539 53.7657 197.539 51.7143V44.4081C197.539 43.4015 197.333 41.8931 197.67 41.117C197.958 40.456 198.522 40.3491 199.051 39.9322ZM227.849 39.9322C231.196 39.8581 232.268 40.648 234.095 42.0385C234.813 42.5843 235.377 43.8513 234.687 44.8688C234.254 45.5106 232.985 46.0536 231.991 45.527C231.383 45.2062 230.961 44.526 230.216 44.2106C227.443 43.0395 225.175 45.2747 224.693 47.37C224.564 47.9268 224.676 48.8071 224.824 49.213C225.35 50.6556 227.235 52.5508 229.492 51.9776C230.103 51.8212 230.747 51.525 231.202 51.1877C231.561 50.9217 231.794 50.5185 232.254 50.332C232.829 50.0962 233.662 50.258 234.095 50.5295C234.925 51.0478 235.303 52.5425 234.621 53.4915C233.692 54.7832 231.717 55.5703 229.887 55.9927C228.525 56.3053 226.657 55.8528 225.745 55.4661C223.287 54.4212 221.759 52.7702 220.945 50.0687C220.737 49.3749 220.455 47.9844 220.682 46.9751C220.814 46.3909 220.871 45.7547 221.077 45.1979C221.811 43.2151 223.46 41.4187 225.35 40.5904C225.86 40.3655 226.443 40.2119 226.994 40.0638C227.273 39.9898 227.635 40.0638 227.849 39.9322ZM82.8072 44.803C83.766 44.8304 84.2071 45.3872 84.7796 45.7903C85.8206 46.5253 86.7987 47.3015 87.8041 48.0283C88.3355 48.4122 89.0971 48.7934 89.4478 49.3447C89.6916 49.7314 89.5409 50.4006 89.4478 50.7928C88.6834 51.2947 88.0205 52.0379 87.2781 52.5699C86.3987 53.2007 85.5467 53.7355 84.6481 54.3471C84.2591 54.6104 83.3605 55.6745 82.4784 55.137C80.9032 54.6378 81.4264 50.4801 81.4264 48.3574C81.4264 47.6388 81.2977 46.657 81.4922 46.0536C81.6675 45.5133 82.0045 45.2912 82.3469 44.9346C82.5688 44.9264 82.6866 44.9017 82.8072 44.803ZM171.962 64.2204C171.962 65.5971 170.625 66.7161 169.069 66.2608C168.108 65.9811 167.478 65.279 167.228 64.2862C166.36 60.8059 171.349 59.6046 171.962 62.7723H170.845C170.73 62.2704 170.428 62.2046 170.121 61.9166C169.853 61.9057 169.428 61.8755 169.267 61.9824C168.113 62.2649 167.998 64.8292 169.135 65.2077C169.721 65.652 170.573 65.1364 170.779 64.7469C170.85 64.6098 170.795 64.3027 170.91 64.2204H171.962ZM141.455 66.195C141.373 65.4381 140.976 64.6811 140.732 64.0229C140.365 63.0274 140.211 62.0044 139.811 61.0609H140.995C141.367 62.2457 141.74 63.4305 142.112 64.6153H142.178C142.23 64.1299 143.066 61.4092 143.296 61.1268C143.515 60.9841 144.142 61.0527 144.479 61.0609V61.1268C144.2 61.5107 144.189 62.0044 144.019 62.509C143.764 63.2714 143.444 64.1244 143.164 64.8786C143.033 65.3174 142.901 65.7562 142.77 66.195H141.455ZM144.874 61.0609H146.057V66.1292C145.77 66.2279 145.263 66.2005 144.874 66.195V61.0609ZM147.044 61.0609H148.161C148.559 61.8974 149.189 62.6653 149.674 63.4305C149.879 63.7569 149.978 64.2478 150.331 64.4178V61.0609H151.383V66.195H150.2C150.087 65.8275 149.791 65.567 149.608 65.2735C149.101 64.4727 148.589 63.6691 148.161 62.8381H148.096V66.195H147.044V61.0609ZM154.802 66.195H153.684V64.1546C153.627 63.9845 153.383 63.7788 153.29 63.628C152.964 63.1014 152.761 62.5748 152.435 62.0483C152.235 61.7246 151.961 61.4778 151.843 61.0609H153.093C153.465 61.7192 153.838 62.3774 154.21 63.0356L154.276 62.9698C154.657 62.5748 154.972 61.9166 155.262 61.4559L155.394 61.0609H156.709V61.1268C156.457 61.3297 156.427 61.6314 156.248 61.9166C155.868 62.5337 155.054 63.5128 154.802 64.1546V66.195ZM157.169 61.0609H158.287V65.2077H160.785V66.195H157.169V61.0609ZM172.751 61.0609C174.68 61.0225 176.321 60.9265 177.025 62.1141C177.206 62.4158 177.329 63.074 177.288 63.3647C177.211 63.9159 177.332 64.3959 177.157 64.8128C176.532 66.3047 174.899 66.2307 172.751 66.195V61.0609ZM175.579 62.1799C176.496 62.7641 176.209 64.2588 175.71 65.0102C175.217 65.1419 174.603 65.2214 173.869 65.2077V62.0483C174.417 62.0345 175.231 61.9578 175.579 62.1799ZM163.941 62.8381C164.423 62.8217 164.675 62.8957 164.862 63.1672C165.36 63.7624 164.694 64.4206 164.073 64.4178C163.996 64.3657 163.963 64.3657 163.81 64.352C163.601 64.0421 163.423 63.9845 163.415 63.4305C163.489 63.34 163.514 63.2413 163.547 63.1014C163.673 63.0328 163.84 62.9396 163.941 62.8381Z" fill="white"/>
<path d="M309.233 44.8182H310.705L314.165 53.2699H314.284L317.744 44.8182H319.216V55H318.062V47.2642H317.963L314.781 55H313.668L310.486 47.2642H310.386V55H309.233V44.8182ZM322.106 55H320.813L324.552 44.8182H325.824L329.563 55H328.27L325.228 46.429H325.148L322.106 55ZM322.583 51.0227H327.793V52.1165H322.583V51.0227ZM337.294 44.8182V45.9119H332.382V55H331.149V44.8182H337.294ZM338.43 55H337.137L340.876 44.8182H342.149L345.887 55H344.595L341.552 46.429H341.472L338.43 55ZM338.907 51.0227H344.117V52.1165H338.907V51.0227ZM350.735 55.1392C350.078 55.1392 349.493 55.0265 348.98 54.8011C348.469 54.5758 348.063 54.2625 347.762 53.8615C347.463 53.4571 347.301 52.9882 347.274 52.4545H348.527C348.554 52.7827 348.666 53.0661 348.865 53.3047C349.064 53.54 349.324 53.7223 349.646 53.8516C349.967 53.9808 350.324 54.0455 350.715 54.0455C351.152 54.0455 351.54 53.9692 351.878 53.8168C352.216 53.6643 352.481 53.4522 352.673 53.1804C352.866 52.9086 352.962 52.5938 352.962 52.2358C352.962 51.8613 352.869 51.5315 352.683 51.2464C352.498 50.9581 352.226 50.7327 351.868 50.5703C351.51 50.4079 351.073 50.3267 350.556 50.3267H349.74V49.233H350.556C350.96 49.233 351.315 49.16 351.619 49.0142C351.928 48.8684 352.168 48.6629 352.34 48.3977C352.516 48.1326 352.604 47.821 352.604 47.4631C352.604 47.1184 352.528 46.8184 352.375 46.5632C352.223 46.308 352.007 46.1091 351.729 45.9666C351.454 45.8241 351.129 45.7528 350.754 45.7528C350.403 45.7528 350.072 45.8175 349.76 45.9467C349.452 46.0727 349.2 46.2566 349.004 46.4986C348.809 46.7372 348.703 47.0256 348.686 47.3636H347.493C347.513 46.83 347.674 46.3627 347.975 45.9616C348.277 45.5573 348.671 45.2424 349.159 45.017C349.649 44.7917 350.188 44.679 350.774 44.679C351.404 44.679 351.944 44.8066 352.395 45.0618C352.846 45.3137 353.192 45.6468 353.434 46.0611C353.676 46.4754 353.797 46.9228 353.797 47.4034C353.797 47.9768 353.646 48.4657 353.345 48.87C353.046 49.2744 352.64 49.5545 352.127 49.7102V49.7898C352.77 49.8958 353.272 50.1693 353.633 50.6101C353.994 51.0476 354.175 51.5895 354.175 52.2358C354.175 52.7893 354.024 53.2865 353.722 53.7273C353.424 54.1648 353.017 54.5095 352.499 54.7614C351.982 55.0133 351.394 55.1392 350.735 55.1392ZM356.387 44.8182H357.6V52.8324H357.7L363.268 44.8182H364.461V55H363.228V47.0057H363.129L357.58 55H356.387V44.8182ZM366.928 55V44.8182H368.161V49.3523H373.59V44.8182H374.823V55H373.59V50.446H368.161V55H366.928Z" fill="white"/>
<path d="M387 55L392 50L387 45" stroke="white" stroke-width="1.5" stroke-linecap="round" stroke-linejoin="round"/>
<path d="M450.233 55V44.8182H453.793C454.502 44.8182 455.087 44.9408 455.548 45.1861C456.008 45.428 456.351 45.7545 456.577 46.1655C456.802 46.5732 456.915 47.0256 456.915 47.5227C456.915 47.9602 456.837 48.3215 456.681 48.6065C456.529 48.8916 456.326 49.117 456.075 49.2827C455.826 49.4484 455.556 49.571 455.264 49.6506V49.75C455.576 49.7699 455.889 49.8793 456.204 50.0781C456.519 50.277 456.782 50.562 456.994 50.9332C457.206 51.3045 457.312 51.7585 457.312 52.2955C457.312 52.8059 457.196 53.2649 456.964 53.6726C456.732 54.0803 456.366 54.4034 455.866 54.642C455.365 54.8807 454.714 55 453.912 55H450.233ZM451.466 53.9062H453.912C454.717 53.9062 455.289 53.7505 455.627 53.4389C455.969 53.1241 456.139 52.7429 456.139 52.2955C456.139 51.9508 456.051 51.6326 455.876 51.3409C455.7 51.0459 455.45 50.8106 455.125 50.6349C454.8 50.456 454.416 50.3665 453.972 50.3665H451.466V53.9062ZM451.466 49.2926H453.753C454.124 49.2926 454.459 49.2197 454.757 49.0739C455.059 48.928 455.297 48.7225 455.473 48.4574C455.652 48.1922 455.741 47.8807 455.741 47.5227C455.741 47.0753 455.586 46.6958 455.274 46.3842C454.963 46.0694 454.469 45.9119 453.793 45.9119H451.466V49.2926ZM460.571 44.8182V55H459.338V44.8182H460.571ZM463.044 55V44.8182H464.276V49.3523H469.705V44.8182H470.938V55H469.705V50.446H464.276V55H463.044ZM474.64 44.8182V55H473.407V44.8182H474.64ZM476.237 55V53.8665H476.535C476.959 53.8665 477.289 53.7306 477.525 53.4588C477.76 53.187 477.929 52.7479 478.032 52.1413C478.138 51.5348 478.209 50.7311 478.245 49.7301L478.424 44.8182H484.629V55H483.396V45.9119H479.598L479.439 49.9688C479.399 51.036 479.301 51.9441 479.145 52.6932C478.989 53.4422 478.716 54.014 478.325 54.4084C477.934 54.8028 477.364 55 476.615 55H476.237Z" fill="white"/>
<path d="M543.426 48H542.193C542.12 47.6454 541.993 47.3338 541.81 47.0653C541.631 46.7969 541.413 46.5715 541.154 46.3892C540.899 46.2036 540.616 46.0644 540.304 45.9716C539.992 45.8788 539.668 45.8324 539.33 45.8324C538.713 45.8324 538.155 45.9882 537.654 46.2997C537.157 46.6113 536.761 47.0703 536.466 47.6768C536.174 48.2834 536.028 49.0275 536.028 49.9091C536.028 50.7907 536.174 51.5348 536.466 52.1413C536.761 52.7479 537.157 53.2069 537.654 53.5185C538.155 53.83 538.713 53.9858 539.33 53.9858C539.668 53.9858 539.992 53.9394 540.304 53.8466C540.616 53.7538 540.899 53.6162 541.154 53.4339C541.413 53.2483 541.631 53.0213 541.81 52.7528C541.993 52.4811 542.12 52.1695 542.193 51.8182H543.426C543.333 52.3385 543.164 52.8042 542.919 53.2152C542.674 53.6262 542.369 53.9759 542.004 54.2642C541.64 54.5492 541.23 54.7663 540.776 54.9155C540.326 55.0646 539.843 55.1392 539.33 55.1392C538.461 55.1392 537.689 54.9271 537.013 54.5028C536.337 54.0786 535.805 53.4754 535.417 52.6932C535.029 51.911 534.835 50.983 534.835 49.9091C534.835 48.8352 535.029 47.9072 535.417 47.125C535.805 46.3428 536.337 45.7396 537.013 45.3153C537.689 44.8911 538.461 44.679 539.33 44.679C539.843 44.679 540.326 44.7536 540.776 44.9027C541.23 45.0518 541.64 45.2706 542.004 45.5589C542.369 45.844 542.674 46.192 542.919 46.603C543.164 47.0107 543.333 47.4763 543.426 48ZM548.561 55H545.419V44.8182H548.7C549.687 44.8182 550.533 45.022 551.235 45.4297C551.938 45.834 552.477 46.4157 552.851 47.1747C553.226 47.9304 553.413 48.8352 553.413 49.8892C553.413 50.9498 553.224 51.8629 552.846 52.6286C552.468 53.3909 551.918 53.9775 551.195 54.3885C550.473 54.7962 549.595 55 548.561 55ZM546.651 53.9062H548.481C549.323 53.9062 550.021 53.7438 550.574 53.419C551.128 53.0942 551.54 52.6319 551.812 52.032C552.084 51.4321 552.22 50.7178 552.22 49.8892C552.22 49.0672 552.085 48.3596 551.817 47.7663C551.548 47.1697 551.147 46.7124 550.614 46.3942C550.08 46.0727 549.416 45.9119 548.62 45.9119H546.651V53.9062Z" fill="white"/>
<path d="M610.259 44.8182V55H609.026V44.8182H610.259ZM603.378 55L606.679 49.6903L603.656 44.8182H605.148L607.793 49.3324H611.511L614.156 44.8182H615.648L612.605 49.7102L615.906 55H614.494L611.73 50.4858H607.554L604.77 55H603.378ZM617.94 55H616.647L620.386 44.8182H621.658L625.397 55H624.104L621.062 46.429H620.982L617.94 55ZM618.417 51.0227H623.627V52.1165H618.417V51.0227ZM626.983 55V44.8182H628.216V49.3523H633.645V44.8182H634.878V55H633.645V50.446H628.216V55H626.983ZM637.346 55V44.8182H640.787C641.585 44.8182 642.238 44.9624 642.745 45.2507C643.256 45.5357 643.634 45.9219 643.879 46.4091C644.124 46.8963 644.247 47.4399 644.247 48.0398C644.247 48.6397 644.124 49.1849 643.879 49.6754C643.637 50.166 643.262 50.5571 642.755 50.8487C642.248 51.1371 641.599 51.2812 640.806 51.2812H638.341V50.1875H640.767C641.314 50.1875 641.753 50.093 642.084 49.9041C642.416 49.7152 642.656 49.46 642.805 49.1385C642.958 48.8137 643.034 48.4474 643.034 48.0398C643.034 47.6321 642.958 47.2675 642.805 46.946C642.656 46.6245 642.414 46.3726 642.079 46.1903C641.744 46.0047 641.3 45.9119 640.747 45.9119H638.579V55H637.346ZM646.233 44.8182H647.446V52.8324H647.545L653.114 44.8182H654.307V55H653.074V47.0057H652.974L647.426 55H646.233V44.8182Z" fill="white"/>
<path d="M712.849 44.8182V55H711.616V45.9119H706.486V55H705.253V44.8182H712.849ZM715.336 55V44.8182H718.777C719.576 44.8182 720.229 44.9624 720.736 45.2507C721.246 45.5357 721.624 45.9219 721.869 46.4091C722.114 46.8963 722.237 47.4399 722.237 48.0398C722.237 48.6397 722.114 49.1849 721.869 49.6754C721.627 50.166 721.253 50.5571 720.746 50.8487C720.238 51.1371 719.589 51.2812 718.797 51.2812H716.331V50.1875H718.757C719.304 50.1875 719.743 50.093 720.074 49.9041C720.406 49.7152 720.646 49.46 720.795 49.1385C720.948 48.8137 721.024 48.4474 721.024 48.0398C721.024 47.6321 720.948 47.2675 720.795 46.946C720.646 46.6245 720.404 46.3726 720.069 46.1903C719.735 46.0047 719.291 45.9119 718.737 45.9119H716.569V55H715.336ZM732.814 49.9091C732.814 50.983 732.62 51.911 732.232 52.6932C731.845 53.4754 731.313 54.0786 730.637 54.5028C729.96 54.9271 729.188 55.1392 728.32 55.1392C727.451 55.1392 726.679 54.9271 726.003 54.5028C725.327 54.0786 724.795 53.4754 724.407 52.6932C724.019 51.911 723.825 50.983 723.825 49.9091C723.825 48.8352 724.019 47.9072 724.407 47.125C724.795 46.3428 725.327 45.7396 726.003 45.3153C726.679 44.8911 727.451 44.679 728.32 44.679C729.188 44.679 729.96 44.8911 730.637 45.3153C731.313 45.7396 731.845 46.3428 732.232 47.125C732.62 47.9072 732.814 48.8352 732.814 49.9091ZM731.621 49.9091C731.621 49.0275 731.473 48.2834 731.178 47.6768C730.887 47.0703 730.491 46.6113 729.99 46.2997C729.493 45.9882 728.936 45.8324 728.32 45.8324C727.703 45.8324 727.145 45.9882 726.644 46.2997C726.147 46.6113 725.751 47.0703 725.456 47.6768C725.164 48.2834 725.019 49.0275 725.019 49.9091C725.019 50.7907 725.164 51.5348 725.456 52.1413C725.751 52.7479 726.147 53.2069 726.644 53.5185C727.145 53.83 727.703 53.9858 728.32 53.9858C728.936 53.9858 729.493 53.83 729.99 53.5185C730.491 53.2069 730.887 52.7479 731.178 52.1413C731.473 51.5348 731.621 50.7907 731.621 49.9091ZM738.825 55V44.8182H740.058V49.3523H745.487V44.8182H746.72V55H745.487V50.446H740.058V55H738.825ZM749.606 55H748.313L752.052 44.8182H753.324L757.063 55H755.77L752.728 46.429H752.648L749.606 55ZM750.083 51.0227H755.293V52.1165H750.083V51.0227ZM766.364 48H765.131C765.058 47.6454 764.93 47.3338 764.748 47.0653C764.569 46.7969 764.35 46.5715 764.092 46.3892C763.836 46.2036 763.553 46.0644 763.241 45.9716C762.93 45.8788 762.605 45.8324 762.267 45.8324C761.651 45.8324 761.092 45.9882 760.592 46.2997C760.094 46.6113 759.698 47.0703 759.403 47.6768C759.112 48.2834 758.966 49.0275 758.966 49.9091C758.966 50.7907 759.112 51.5348 759.403 52.1413C759.698 52.7479 760.094 53.2069 760.592 53.5185C761.092 53.83 761.651 53.9858 762.267 53.9858C762.605 53.9858 762.93 53.9394 763.241 53.8466C763.553 53.7538 763.836 53.6162 764.092 53.4339C764.35 53.2483 764.569 53.0213 764.748 52.7528C764.93 52.4811 765.058 52.1695 765.131 51.8182H766.364C766.271 52.3385 766.102 52.8042 765.857 53.2152C765.611 53.6262 765.306 53.9759 764.942 54.2642C764.577 54.5492 764.168 54.7663 763.714 54.9155C763.263 55.0646 762.781 55.1392 762.267 55.1392C761.399 55.1392 760.626 54.9271 759.95 54.5028C759.274 54.0786 758.742 53.4754 758.354 52.6932C757.967 51.911 757.773 50.983 757.773 49.9091C757.773 48.8352 757.967 47.9072 758.354 47.125C758.742 46.3428 759.274 45.7396 759.95 45.3153C760.626 44.8911 761.399 44.679 762.267 44.679C762.781 44.679 763.263 44.7536 763.714 44.9027C764.168 45.0518 764.577 45.2706 764.942 45.5589C765.306 45.844 765.611 46.192 765.857 46.603C766.102 47.0107 766.271 47.4763 766.364 48Z" fill="white"/>
<path d="M817.651 55H816.358L820.097 44.8182H821.369L825.108 55H823.815L820.773 46.429H820.693L817.651 55ZM818.128 51.0227H823.338V52.1165H818.128V51.0227ZM832.68 55L829.18 50.3267H827.927V55H826.694V44.8182H827.927V49.233H828.464L832.54 44.8182H834.012L829.896 49.2926L834.151 55H832.68ZM844.395 53.8267L844.256 57.4062H842.983V55H842.267V53.8267H844.395ZM835.745 55V44.8182H836.918V53.8665H842.168V44.8182H843.341V55H835.745ZM847.491 44.8182V55H846.258V44.8182H847.491ZM851.196 44.8182V55H849.963V44.8182H851.196ZM849.148 43.5455C848.939 43.5455 848.755 43.4659 848.596 43.3068C848.434 43.1444 848.353 42.9588 848.353 42.75C848.353 42.5213 848.434 42.3324 848.596 42.1832C848.755 42.0308 848.939 41.9545 849.148 41.9545C849.377 41.9545 849.566 42.0308 849.715 42.1832C849.867 42.3324 849.944 42.5213 849.944 42.75C849.944 42.9588 849.867 43.1444 849.715 43.3068C849.566 43.4659 849.377 43.5455 849.148 43.5455ZM852.012 43.5455C851.803 43.5455 851.617 43.4659 851.455 43.3068C851.296 43.1444 851.216 42.9588 851.216 42.75C851.216 42.5213 851.296 42.3324 851.455 42.1832C851.617 42.0308 851.803 41.9545 852.012 41.9545C852.24 41.9545 852.429 42.0308 852.578 42.1832C852.731 42.3324 852.807 42.5213 852.807 42.75C852.807 42.9588 852.731 43.1444 852.578 43.3068C852.429 43.4659 852.24 43.5455 852.012 43.5455Z" fill="white"/>
<rect x="1180.5" y="30.5" width="301" height="39" rx="19.5" stroke="#585A5F"/>
<path d="M1204.08 54.0999L1206.64 56.6666M1205.83 49.5833C1205.83 51.2409 1205.18 52.8306 1204 54.0027C1202.83 55.1748 1201.24 55.8333 1199.58 55.8333C1197.93 55.8333 1196.34 55.1748 1195.16 54.0027C1193.99 52.8306 1193.33 51.2409 1193.33 49.5833C1193.33 47.9256 1193.99 46.3359 1195.16 45.1638C1196.34 43.9917 1197.93 43.3333 1199.58 43.3333C1201.24 43.3333 1202.83 43.9917 1204 45.1638C1205.18 46.3359 1205.83 47.9256 1205.83 49.5833Z" stroke="#585A5F" stroke-width="1.5" stroke-linecap="round" stroke-linejoin="round"/>
<path d="M1216.98 55.5V45.42H1224.7V55.5H1223.67V46.407H1218.01V55.5H1216.98ZM1230.74 55.71C1229.74 55.71 1228.89 55.4883 1228.2 55.045C1227.51 54.597 1226.99 53.9787 1226.63 53.19C1226.28 52.4013 1226.1 51.4913 1226.1 50.46C1226.1 49.4287 1226.28 48.5187 1226.63 47.73C1226.99 46.9413 1227.51 46.3253 1228.2 45.882C1228.89 45.434 1229.74 45.21 1230.74 45.21C1231.75 45.21 1232.6 45.434 1233.28 45.882C1233.97 46.3253 1234.5 46.9413 1234.85 47.73C1235.21 48.5187 1235.39 49.4287 1235.39 50.46C1235.39 51.4913 1235.21 52.4013 1234.85 53.19C1234.5 53.9787 1233.97 54.597 1233.28 55.045C1232.6 55.4883 1231.75 55.71 1230.74 55.71ZM1230.74 54.723C1231.53 54.723 1232.19 54.5433 1232.71 54.184C1233.24 53.8247 1233.64 53.3253 1233.9 52.686C1234.16 52.042 1234.3 51.3 1234.3 50.46C1234.3 49.62 1234.16 48.8803 1233.9 48.241C1233.64 47.6017 1233.24 47.1023 1232.71 46.743C1232.19 46.3837 1231.53 46.2017 1230.74 46.197C1229.95 46.197 1229.3 46.3767 1228.77 46.736C1228.25 47.0953 1227.86 47.597 1227.59 48.241C1227.33 48.8803 1227.2 49.62 1227.19 50.46C1227.19 51.3 1227.32 52.0397 1227.58 52.679C1227.84 53.3137 1228.24 53.813 1228.77 54.177C1229.29 54.5363 1229.95 54.7183 1230.74 54.723ZM1236.79 55.5V45.42H1237.82V54.513H1241.64V45.42H1242.67V54.513H1246.5V45.42H1247.52V55.5H1236.79ZM1251.18 55.5L1252.31 53.113L1248.73 45.42H1249.87L1252.85 52.007L1255.89 45.42H1256.99L1252.3 55.5H1251.18ZM1258.2 55.5V45.42H1259.23V50.18L1263.83 45.42H1265.14L1260.45 50.285L1265.53 55.5H1264.19L1259.23 50.46V55.5H1258.2Z" fill="#585A5F"/>
<path d="M1531.77 55.1392V53.9858H1532.41C1532.65 53.9858 1532.86 53.9377 1533.02 53.8416C1533.19 53.7455 1533.33 53.6212 1533.44 53.4688C1533.55 53.3163 1533.65 53.1572 1533.72 52.9915L1533.88 52.6136L1530.36 44.8182H1531.69L1534.49 51.142L1537.06 44.8182H1538.37L1534.85 53.3494C1534.71 53.6676 1534.55 53.9626 1534.38 54.2344C1534.2 54.5062 1533.96 54.7249 1533.65 54.8906C1533.35 55.0563 1532.94 55.1392 1532.43 55.1392H1531.77ZM1539.97 55V44.8182H1543.53C1544.24 44.8182 1544.82 44.9408 1545.28 45.1861C1545.74 45.428 1546.09 45.7545 1546.31 46.1655C1546.54 46.5732 1546.65 47.0256 1546.65 47.5227C1546.65 47.9602 1546.57 48.3215 1546.42 48.6065C1546.26 48.8916 1546.06 49.117 1545.81 49.2827C1545.56 49.4484 1545.29 49.571 1545 49.6506V49.75C1545.31 49.7699 1545.63 49.8793 1545.94 50.0781C1546.26 50.277 1546.52 50.562 1546.73 50.9332C1546.94 51.3045 1547.05 51.7585 1547.05 52.2955C1547.05 52.8059 1546.93 53.2649 1546.7 53.6726C1546.47 54.0803 1546.1 54.4034 1545.6 54.642C1545.1 54.8807 1544.45 55 1543.65 55H1539.97ZM1541.2 53.9062H1543.65C1544.45 53.9062 1545.03 53.7505 1545.36 53.4389C1545.7 53.1241 1545.88 52.7429 1545.88 52.2955C1545.88 51.9508 1545.79 51.6326 1545.61 51.3409C1545.44 51.0459 1545.19 50.8106 1544.86 50.6349C1544.54 50.456 1544.15 50.3665 1543.71 50.3665H1541.2V53.9062ZM1541.2 49.2926H1543.49C1543.86 49.2926 1544.2 49.2197 1544.49 49.0739C1544.8 48.928 1545.03 48.7225 1545.21 48.4574C1545.39 48.1922 1545.48 47.8807 1545.48 47.5227C1545.48 47.0753 1545.32 46.6958 1545.01 46.3842C1544.7 46.0694 1544.21 45.9119 1543.53 45.9119H1541.2V49.2926ZM1550.31 44.8182V55H1549.07V44.8182H1550.31ZM1552.78 44.8182H1553.99V52.8324H1554.09L1559.66 44.8182H1560.85V55H1559.62V47.0057H1559.52L1553.97 55H1552.78V44.8182ZM1557.79 42.2727H1558.88C1558.88 42.8097 1558.7 43.2488 1558.33 43.5902C1557.96 43.9316 1557.45 44.1023 1556.82 44.1023C1556.19 44.1023 1555.69 43.9316 1555.32 43.5902C1554.95 43.2488 1554.77 42.8097 1554.77 42.2727H1555.86C1555.86 42.5312 1555.93 42.7583 1556.08 42.9538C1556.22 43.1494 1556.47 43.2472 1556.82 43.2472C1557.16 43.2472 1557.41 43.1494 1557.56 42.9538C1557.71 42.7583 1557.79 42.5312 1557.79 42.2727ZM1562.76 45.9119V44.8182H1570.4V45.9119H1567.2V55H1565.97V45.9119H1562.76ZM1572.3 44.8182H1573.52V52.8324H1573.62L1579.18 44.8182H1580.38V55H1579.14V47.0057H1579.04L1573.5 55H1572.3V44.8182Z" fill="white"/>
<path d="M1647 56C1647.53 56 1648.04 56.2107 1648.41 56.5858C1648.79 56.9609 1649 57.4696 1649 58C1649 58.5304 1648.79 59.0391 1648.41 59.4142C1648.04 59.7893 1647.53 60 1647 60C1646.47 60 1645.96 59.7893 1645.59 59.4142C1645.21 59.0391 1645 58.5304 1645 58C1645 56.89 1645.89 56 1647 56ZM1631 40H1634.27L1635.21 42H1650C1650.27 42 1650.52 42.1054 1650.71 42.2929C1650.89 42.4804 1651 42.7348 1651 43C1651 43.17 1650.95 43.34 1650.88 43.5L1647.3 49.97C1646.96 50.58 1646.3 51 1645.55 51H1638.1L1637.2 52.63L1637.17 52.75C1637.17 52.8163 1637.2 52.8799 1637.24 52.9268C1637.29 52.9737 1637.35 53 1637.42 53H1649V55H1637C1636.47 55 1635.96 54.7893 1635.59 54.4142C1635.21 54.0391 1635 53.5304 1635 53C1635 52.65 1635.09 52.32 1635.24 52.04L1636.6 49.59L1633 42H1631V40ZM1637 56C1637.53 56 1638.04 56.2107 1638.41 56.5858C1638.79 56.9609 1639 57.4696 1639 58C1639 58.5304 1638.79 59.0391 1638.41 59.4142C1638.04 59.7893 1637.53 60 1637 60C1636.47 60 1635.96 59.7893 1635.59 59.4142C1635.21 59.0391 1635 58.5304 1635 58C1635 56.89 1635.89 56 1637 56ZM1646 49L1648.78 44H1636.14L1638.5 49H1646Z" fill="white"/>
</svg>
